<svg width="112" height="71" viewBox="0 0 112 71" fill="none" xmlns="http://www.w3.org/2000/svg">
<path d="M45.128 12.632H14.024V29.048C15.368 27.384 17.288 26.04 19.784 25.016C22.28 23.928 24.936 23.384 27.752 23.384C32.872 23.384 37.064 24.504 40.328 26.744C43.592 28.984 45.96 31.864 47.432 35.384C48.904 38.84 49.64 42.552 49.64 46.52C49.64 53.88 47.528 59.8 43.304 64.28C39.144 68.76 33.192 71 25.448 71C18.152 71 12.328 69.176 7.976 65.528C3.624 61.88 1.16 57.112 0.584 51.224H13.64C14.216 53.784 15.496 55.832 17.48 57.368C19.528 58.904 22.12 59.672 25.256 59.672C29.032 59.672 31.88 58.488 33.8 56.12C35.72 53.752 36.68 50.616 36.68 46.712C36.68 42.744 35.688 39.736 33.704 37.688C31.784 35.576 28.936 34.52 25.16 34.52C22.472 34.52 20.232 35.192 18.44 36.536C16.648 37.88 15.368 39.672 14.6 41.912H1.736V0.823999H45.128V12.632ZM111.613 42.68H93.4693V61.304H80.7973V42.68H62.6533V30.968H80.7973V12.344H93.4693V30.968H111.613V42.68Z" fill="#7562E0"/>
</svg>
